<svg width="37" height="37" viewBox="0 0 37 37" fill="none" xmlns="http://www.w3.org/2000/svg">
<path d="M2.64284 7.92847H0L0 10.5713H2.64284V7.92847Z" fill="#4E86A4"/>
<path d="M2.64284 10.5713H0L0 13.2141H2.64284V10.5713Z" fill="#4E86A4"/>
<path d="M2.64284 13.2141H0L0 15.8569H2.64284V13.2141Z" fill="#4E86A4"/>
<path d="M2.64284 15.8569H0L0 18.4998H2.64284V15.8569Z" fill="#4E86A4"/>
<path d="M2.64284 18.4998H0L0 21.1426H2.64284V18.4998Z" fill="#4E86A4"/>
<path d="M2.64284 21.1423H0L0 23.7851H2.64284V21.1423Z" fill="#4E86A4"/>
<path d="M2.64284 23.7854H0L0 26.4282H2.64284V23.7854Z" fill="#4E86A4"/>
<path d="M2.64284 26.428H0L0 29.0708H2.64284V26.428Z" fill="#4E86A4"/>
<path d="M5.28535 5.2854H2.64258V7.92822H5.28535V5.2854Z" fill="#4E86A4"/>
<path d="M7.928 2.64282H5.28516V5.28564H7.928V2.64282Z" fill="#4E86A4"/>
<path d="M5.28535 2.64282H2.64258V5.28564H5.28535V2.64282Z" fill="#4E86A4"/>
<path d="M37.0003 26.1831H34.3574V28.8259H37.0003V26.1831Z" fill="#4E86A4"/>
<path d="M37.0003 23.5403H34.3574V26.1831H37.0003V23.5403Z" fill="#4E86A4"/>
<path d="M37.0003 20.8972H34.3574V23.54H37.0003V20.8972Z" fill="#4E86A4"/>
<path d="M37.0003 18.2546H34.3574V20.8975H37.0003V18.2546Z" fill="#4E86A4"/>
<path d="M37.0003 15.6116H34.3574V18.2544H37.0003V15.6116Z" fill="#4E86A4"/>
<path d="M37.0003 12.9688H34.3574V15.6116H37.0003V12.9688Z" fill="#4E86A4"/>
<path d="M37.0003 10.3262H34.3574V12.969H37.0003V10.3262Z" fill="#4E86A4"/>
<path d="M37.0003 7.68335H34.3574V10.3262H37.0003V7.68335Z" fill="#4E86A4"/>
<path d="M34.3576 5.2854H31.7148V7.92822H34.3576V5.2854Z" fill="#4E86A4"/>
<path d="M31.7151 2.64282H29.0723V5.28564H31.7151V2.64282Z" fill="#4E86A4"/>
<path d="M34.3576 2.64282H31.7148V5.28564H34.3576V2.64282Z" fill="#4E86A4"/>
<path d="M10.5705 0L7.92773 0V2.64282H10.5705V0Z" fill="#4E86A4"/>
<path d="M13.2132 0L10.5703 0V2.64282H13.2132V0Z" fill="#4E86A4"/>
<path d="M15.8557 0L13.2129 0V2.64282H15.8557V0Z" fill="#4E86A4"/>
<path d="M18.5002 0L15.8574 0V2.64282H18.5002V0Z" fill="#4E86A4"/>
<path d="M21.1428 0L18.5 0V2.64282H21.1428V0Z" fill="#4E86A4"/>
<path d="M23.7854 0L21.1426 0V2.64282H23.7854V0Z" fill="#4E86A4"/>
<path d="M26.4279 0L23.7852 0V2.64282H26.4279V0Z" fill="#4E86A4"/>
<path d="M29.0725 0L26.4297 0V2.64282H29.0725V0Z" fill="#4E86A4"/>
<path d="M5.28535 28.8257H2.64258V31.4685H5.28535V28.8257Z" fill="#4E86A4"/>
<path d="M7.928 31.4685H5.28516V34.1113H7.928V31.4685Z" fill="#4E86A4"/>
<path d="M5.28535 31.4685H2.64258V34.1113H5.28535V31.4685Z" fill="#4E86A4"/>
<path d="M34.3576 28.8257H31.7148V31.4685H34.3576V28.8257Z" fill="#4E86A4"/>
<path d="M34.3576 31.4685H31.7148V34.1113H34.3576V31.4685Z" fill="#4E86A4"/>
<path d="M31.7151 31.4685H29.0723V34.1113H31.7151V31.4685Z" fill="#4E86A4"/>
<path d="M10.5705 34.1113H7.92773V36.7541H10.5705V34.1113Z" fill="#4E86A4"/>
<path d="M13.2132 34.1113H10.5703V36.7541H13.2132V34.1113Z" fill="#4E86A4"/>
<path d="M15.8557 34.1113H13.2129V36.7541H15.8557V34.1113Z" fill="#4E86A4"/>
<path d="M18.5002 34.1113H15.8574V36.7541H18.5002V34.1113Z" fill="#4E86A4"/>
<path d="M21.1428 34.1113H18.5V36.7541H21.1428V34.1113Z" fill="#4E86A4"/>
<path d="M23.7854 34.1113H21.1426V36.7541H23.7854V34.1113Z" fill="#4E86A4"/>
<path d="M26.4279 34.1113H23.7852V36.7541H26.4279V34.1113Z" fill="#4E86A4"/>
<path d="M29.0725 34.1113H26.4297V36.7541H29.0725V34.1113Z" fill="#4E86A4"/>
<path d="M17.053 9.13013H14.4102V11.7729H17.053V9.13013Z" fill="#4E86A4"/>
<path d="M19.6955 11.7729H17.0527V14.4158H19.6955V11.7729Z" fill="#4E86A4"/>
<path d="M22.3401 14.4158H19.6973V17.0586H22.3401V14.4158Z" fill="#4E86A4"/>
<path d="M22.3401 17.0527H19.6973V19.6956H22.3401V17.0527Z" fill="#4E86A4"/>
<path d="M24.9827 17.0527H22.3398V19.6956H24.9827V17.0527Z" fill="#4E86A4"/>
<path d="M22.3401 19.6956H19.6973V22.3384H22.3401V19.6956Z" fill="#4E86A4"/>
<path d="M19.6955 22.3381H17.0527V24.9809H19.6955V22.3381Z" fill="#4E86A4"/>
<path d="M19.6955 19.6956H17.0527V22.3384H19.6955V19.6956Z" fill="#4E86A4"/>
<path d="M19.6955 17.0527H17.0527V19.6956H19.6955V17.0527Z" fill="#4E86A4"/>
<path d="M19.6955 14.4158H17.0527V17.0586H19.6955V14.4158Z" fill="#4E86A4"/>
<path d="M17.053 24.9812H14.4102V27.624H17.053V24.9812Z" fill="#4E86A4"/>
<path d="M17.053 11.7729H14.4102V14.4158H17.053V11.7729Z" fill="#4E86A4"/>
<path d="M17.053 14.4158H14.4102V17.0586H17.053V14.4158Z" fill="#4E86A4"/>
<path d="M17.053 17.0527H14.4102V19.6956H17.053V17.0527Z" fill="#4E86A4"/>
<path d="M17.053 19.6956H14.4102V22.3384H17.053V19.6956Z" fill="#4E86A4"/>
<path d="M17.053 22.3381H14.4102V24.9809H17.053V22.3381Z" fill="#4E86A4"/>
</svg>
