<svg width="58" height="57" viewBox="0 0 58 57" fill="none" xmlns="http://www.w3.org/2000/svg">
  <path d="M10.2855 18.7664H27.1839V22.1461H20.4246V39.0444H17.0449V22.1461H10.2855V18.7664ZM29.1985 20.4562H30.8884V18.7664H46.0969V22.1461H32.5782V35.6648H42.7172V30.5952H37.6477V27.2156H46.0969V39.0444H30.8884V37.3546H29.1985V20.4562Z" fill="#29A8EB"/>
  <path d="M4.24801 12.1812H0.1875V16.2416H4.24801V12.1812Z" fill="#29A8EB"/>
  <path d="M4.24801 16.2422H0.1875V20.3027H4.24801V16.2422Z" fill="#29A8EB"/>
  <path d="M4.24801 20.3022H0.1875V24.3627H4.24801V20.3022Z" fill="#29A8EB"/>
  <path d="M4.24801 24.3628H0.1875V28.4233H4.24801V24.3628Z" fill="#29A8EB"/>
  <path d="M4.24801 28.4233H0.1875V32.4838H4.24801V28.4233Z" fill="#29A8EB"/>
  <path d="M4.24801 32.4834H0.1875V36.5439H4.24801V32.4834Z" fill="#29A8EB"/>
  <path d="M4.24801 36.5444H0.1875V40.6049H4.24801V36.5444Z" fill="#29A8EB"/>
  <path d="M4.24801 40.605H0.1875V44.6655H4.24801V40.605Z" fill="#29A8EB"/>
  <path d="M8.30844 8.12061H4.24805V12.1811H8.30844V8.12061Z" fill="#29A8EB"/>
  <path d="M12.3691 4.06055H8.30859V8.12101H12.3691V4.06055Z" fill="#29A8EB"/>
  <path d="M8.30844 4.06055H4.24805V8.12101H8.30844V4.06055Z" fill="#29A8EB"/>
  <path d="M57.0332 40.228H52.9727V44.2885H57.0332V40.228Z" fill="#29A8EB"/>
  <path d="M57.0332 36.1675H52.9727V40.2279H57.0332V36.1675Z" fill="#29A8EB"/>
  <path d="M57.0332 32.1074H52.9727V36.1679H57.0332V32.1074Z" fill="#29A8EB"/>
  <path d="M57.0332 28.0469H52.9727V32.1073H57.0332V28.0469Z" fill="#29A8EB"/>
  <path d="M57.0332 23.9863H52.9727V28.0468H57.0332V23.9863Z" fill="#29A8EB"/>
  <path d="M57.0332 19.9258H52.9727V23.9862H57.0332V19.9258Z" fill="#29A8EB"/>
  <path d="M57.0332 15.8652H52.9727V19.9257H57.0332V15.8652Z" fill="#29A8EB"/>
  <path d="M57.0332 11.8047H52.9727V15.8652H57.0332V11.8047Z" fill="#29A8EB"/>
  <path d="M52.9725 8.12061H48.9121V12.1811H52.9725V8.12061Z" fill="#29A8EB"/>
  <path d="M48.9121 4.06055H44.8516V8.12101H48.9121V4.06055Z" fill="#29A8EB"/>
  <path d="M52.9725 4.06055H48.9121V8.12101H52.9725V4.06055Z" fill="#29A8EB"/>
  <path d="M16.4296 0H12.3691V4.06047H16.4296V0Z" fill="#29A8EB"/>
  <path d="M20.4901 0H16.4297V4.06047H20.4901V0Z" fill="#29A8EB"/>
  <path d="M24.5507 0H20.4902V4.06047H24.5507V0Z" fill="#29A8EB"/>
  <path d="M28.6093 0H24.5488V4.06047H28.6093V0Z" fill="#29A8EB"/>
  <path d="M32.6698 0H28.6094V4.06047H32.6698V0Z" fill="#29A8EB"/>
  <path d="M36.7324 0H32.6719V4.06047H36.7324V0Z" fill="#29A8EB"/>
  <path d="M40.7929 0H36.7324V4.06047H40.7929V0Z" fill="#29A8EB"/>
  <path d="M44.8514 0H40.791V4.06047H44.8514V0Z" fill="#29A8EB"/>
  <path d="M8.30844 44.2886H4.24805V48.349H8.30844V44.2886Z" fill="#29A8EB"/>
  <path d="M8.30844 48.3491H4.24805V52.4096H8.30844V48.3491Z" fill="#29A8EB"/>
  <path d="M12.3691 48.3491H8.30859V52.4096H12.3691V48.3491Z" fill="#29A8EB"/>
  <path d="M52.9725 44.2886H48.9121V48.349H52.9725V44.2886Z" fill="#29A8EB"/>
  <path d="M52.9725 48.3491H48.9121V52.4096H52.9725V48.3491Z" fill="#29A8EB"/>
  <path d="M48.9121 48.3491H44.8516V52.4096H48.9121V48.3491Z" fill="#29A8EB"/>
  <path d="M16.4296 52.4092H12.3691V56.4696H16.4296V52.4092Z" fill="#29A8EB"/>
  <path d="M20.4901 52.4092H16.4297V56.4696H20.4901V52.4092Z" fill="#29A8EB"/>
  <path d="M24.5507 52.4092H20.4902V56.4696H24.5507V52.4092Z" fill="#29A8EB"/>
  <path d="M28.6093 52.4092H24.5488V56.4696H28.6093V52.4092Z" fill="#29A8EB"/>
  <path d="M32.6698 52.4092H28.6094V56.4696H32.6698V52.4092Z" fill="#29A8EB"/>
  <path d="M36.7324 52.4092H32.6719V56.4696H36.7324V52.4092Z" fill="#29A8EB"/>
  <path d="M40.7929 52.4092H36.7324V56.4696H40.7929V52.4092Z" fill="#29A8EB"/>
  <path d="M44.8514 52.4092H40.791V56.4696H44.8514V52.4092Z" fill="#29A8EB"/>
</svg>
