<svg width="57" height="57" viewBox="0 0 57 57" fill="none" xmlns="http://www.w3.org/2000/svg">
  <path d="M10.0961 18.7664H13.4758V25.5257H15.1656V28.9054H16.8554V32.2851H20.2351V28.9054H21.925V25.5257H23.6148V18.7664H26.9945V25.5257H25.3046V30.5952H23.6148V32.2851H21.925V35.6648H20.2351V39.0444H16.8554V35.6648H15.1656V32.2851H13.4758V30.5952H11.7859V25.5257H10.0961V18.7664ZM29.0091 18.7664H32.3887V27.2156H35.7684V25.5257H37.4583V23.8359H39.1481V22.1461H40.8379V20.4562H42.5278V18.7664H45.9074V22.1461H44.2176V23.8359H42.5278V25.5257H40.8379V27.2156H39.1481V30.5952H40.8379V32.2851H42.5278V33.9749H44.2176V35.6648H45.9074V39.0444H42.5278V37.3546H40.8379V35.6648H39.1481V33.9749H37.4583V32.2851H35.7684V30.5952H32.3887V39.0444H29.0091V18.7664Z" fill="#29A8EB"/>
  <path d="M4.06051 12.1812H0V16.2416H4.06051V12.1812Z" fill="#29A8EB"/>
  <path d="M4.06051 16.2422H0V20.3027H4.06051V16.2422Z" fill="#29A8EB"/>
  <path d="M4.06051 20.3022H0V24.3627H4.06051V20.3022Z" fill="#29A8EB"/>
  <path d="M4.06051 24.3628H0V28.4233H4.06051V24.3628Z" fill="#29A8EB"/>
  <path d="M4.06051 28.4233H0V32.4838H4.06051V28.4233Z" fill="#29A8EB"/>
  <path d="M4.06051 32.4834H0V36.5439H4.06051V32.4834Z" fill="#29A8EB"/>
  <path d="M4.06051 36.5444H0V40.6049H4.06051V36.5444Z" fill="#29A8EB"/>
  <path d="M4.06051 40.605H0V44.6655H4.06051V40.605Z" fill="#29A8EB"/>
  <path d="M8.12094 8.12061H4.06055V12.1811H8.12094V8.12061Z" fill="#29A8EB"/>
  <path d="M12.1816 4.06055H8.12109V8.12101H12.1816V4.06055Z" fill="#29A8EB"/>
  <path d="M8.12094 4.06055H4.06055V8.12101H8.12094V4.06055Z" fill="#29A8EB"/>
  <path d="M56.8457 40.228H52.7852V44.2885H56.8457V40.228Z" fill="#29A8EB"/>
  <path d="M56.8457 36.1675H52.7852V40.2279H56.8457V36.1675Z" fill="#29A8EB"/>
  <path d="M56.8457 32.1074H52.7852V36.1679H56.8457V32.1074Z" fill="#29A8EB"/>
  <path d="M56.8457 28.0469H52.7852V32.1073H56.8457V28.0469Z" fill="#29A8EB"/>
  <path d="M56.8457 23.9863H52.7852V28.0468H56.8457V23.9863Z" fill="#29A8EB"/>
  <path d="M56.8457 19.9258H52.7852V23.9862H56.8457V19.9258Z" fill="#29A8EB"/>
  <path d="M56.8457 15.8652H52.7852V19.9257H56.8457V15.8652Z" fill="#29A8EB"/>
  <path d="M56.8457 11.8047H52.7852V15.8652H56.8457V11.8047Z" fill="#29A8EB"/>
  <path d="M52.785 8.12061H48.7246V12.1811H52.785V8.12061Z" fill="#29A8EB"/>
  <path d="M48.7246 4.06055H44.6641V8.12101H48.7246V4.06055Z" fill="#29A8EB"/>
  <path d="M52.785 4.06055H48.7246V8.12101H52.785V4.06055Z" fill="#29A8EB"/>
  <path d="M16.2421 0H12.1816V4.06047H16.2421V0Z" fill="#29A8EB"/>
  <path d="M20.3026 0H16.2422V4.06047H20.3026V0Z" fill="#29A8EB"/>
  <path d="M24.3632 0H20.3027V4.06047H24.3632V0Z" fill="#29A8EB"/>
  <path d="M28.4218 0H24.3613V4.06047H28.4218V0Z" fill="#29A8EB"/>
  <path d="M32.4823 0H28.4219V4.06047H32.4823V0Z" fill="#29A8EB"/>
  <path d="M36.5429 0H32.4824V4.06047H36.5429V0Z" fill="#29A8EB"/>
  <path d="M40.6054 0H36.5449V4.06047H40.6054V0Z" fill="#29A8EB"/>
  <path d="M44.6639 0H40.6035V4.06047H44.6639V0Z" fill="#29A8EB"/>
  <path d="M8.12094 44.2886H4.06055V48.349H8.12094V44.2886Z" fill="#29A8EB"/>
  <path d="M8.12094 48.3491H4.06055V52.4096H8.12094V48.3491Z" fill="#29A8EB"/>
  <path d="M12.1816 48.3491H8.12109V52.4096H12.1816V48.3491Z" fill="#29A8EB"/>
  <path d="M52.785 44.2886H48.7246V48.349H52.785V44.2886Z" fill="#29A8EB"/>
  <path d="M52.785 48.3491H48.7246V52.4096H52.785V48.3491Z" fill="#29A8EB"/>
  <path d="M48.7246 48.3491H44.6641V52.4096H48.7246V48.3491Z" fill="#29A8EB"/>
  <path d="M16.2421 52.4092H12.1816V56.4696H16.2421V52.4092Z" fill="#29A8EB"/>
  <path d="M20.3026 52.4092H16.2422V56.4696H20.3026V52.4092Z" fill="#29A8EB"/>
  <path d="M24.3632 52.4092H20.3027V56.4696H24.3632V52.4092Z" fill="#29A8EB"/>
  <path d="M28.4218 52.4092H24.3613V56.4696H28.4218V52.4092Z" fill="#29A8EB"/>
  <path d="M32.4823 52.4092H28.4219V56.4696H32.4823V52.4092Z" fill="#29A8EB"/>
  <path d="M36.5429 52.4092H32.4824V56.4696H36.5429V52.4092Z" fill="#29A8EB"/>
  <path d="M40.6054 52.4092H36.5449V56.4696H40.6054V52.4092Z" fill="#29A8EB"/>
  <path d="M44.6639 52.4092H40.6035V56.4696H44.6639V52.4092Z" fill="#29A8EB"/>
</svg>
