<svg width="148" height="56" viewBox="0 0 148 56" fill="none" xmlns="http://www.w3.org/2000/svg">
  <path d="M8.83962 2.94727H5.89258V5.89427H8.83962V2.94727Z" fill="#29A8EB"/>
  <path d="M5.89427 2.94727H2.94727V5.89427H5.89427V2.94727Z" fill="#29A8EB"/>
  <path d="M5.89427 5.89404H2.94727V8.84107H5.89427V5.89404Z" fill="#29A8EB"/>
  <path d="M2.947 8.84082H0V11.7878H2.947V8.84082Z" fill="#29A8EB"/>
  <path d="M2.947 11.7876H0V14.7346H2.947V11.7876Z" fill="#29A8EB"/>
  <path d="M2.947 14.7349H0V17.6819H2.947V14.7349Z" fill="#29A8EB"/>
  <path d="M2.947 17.6821H0V20.6291H2.947V17.6821Z" fill="#29A8EB"/>
  <path d="M2.947 20.6294H0V23.5764H2.947V20.6294Z" fill="#29A8EB"/>
  <path d="M2.947 23.5762H0V26.5232H2.947V23.5762Z" fill="#29A8EB"/>
  <path d="M2.947 26.5229H0V29.47H2.947V26.5229Z" fill="#29A8EB"/>
  <path d="M2.947 29.4702H0V32.4172H2.947V29.4702Z" fill="#29A8EB"/>
  <path d="M2.947 32.417H0V35.364H2.947V32.417Z" fill="#29A8EB"/>
  <path d="M2.947 35.3643H0V38.3113H2.947V35.3643Z" fill="#29A8EB"/>
  <path d="M2.947 38.311H0V41.258H2.947V38.311Z" fill="#29A8EB"/>
  <path d="M2.947 41.2583H0V44.2053H2.947V41.2583Z" fill="#29A8EB"/>
  <path d="M2.947 44.2051H0V47.1521H2.947V44.2051Z" fill="#29A8EB"/>
  <path d="M5.89427 50.0991H2.94727V53.0461H5.89427V50.0991Z" fill="#29A8EB"/>
  <path d="M8.83962 50.0991H5.89258V53.0461H8.83962V50.0991Z" fill="#29A8EB"/>
  <path d="M5.89427 47.1519H2.94727V50.0989H5.89427V47.1519Z" fill="#29A8EB"/>
  <path d="M141.451 2.94727H138.504V5.89427H141.451V2.94727Z" fill="#29A8EB"/>
  <path d="M144.396 2.94727H141.449V5.89427H144.396V2.94727Z" fill="#29A8EB"/>
  <path d="M144.396 5.89404H141.449V8.84107H144.396V5.89404Z" fill="#29A8EB"/>
  <path d="M147.343 8.84082H144.396V11.7878H147.343V8.84082Z" fill="#29A8EB"/>
  <path d="M147.343 11.7876H144.396V14.7346H147.343V11.7876Z" fill="#29A8EB"/>
  <path d="M147.343 14.7349H144.396V17.6819H147.343V14.7349Z" fill="#29A8EB"/>
  <path d="M147.343 17.6821H144.396V20.6291H147.343V17.6821Z" fill="#29A8EB"/>
  <path d="M147.343 20.6294H144.396V23.5764H147.343V20.6294Z" fill="#29A8EB"/>
  <path d="M147.343 23.5762H144.396V26.5232H147.343V23.5762Z" fill="#29A8EB"/>
  <path d="M147.343 26.5229H144.396V29.47H147.343V26.5229Z" fill="#29A8EB"/>
  <path d="M147.343 29.4702H144.396V32.4172H147.343V29.4702Z" fill="#29A8EB"/>
  <path d="M147.343 32.417H144.396V35.364H147.343V32.417Z" fill="#29A8EB"/>
  <path d="M147.343 35.3643H144.396V38.3113H147.343V35.3643Z" fill="#29A8EB"/>
  <path d="M147.343 38.311H144.396V41.258H147.343V38.311Z" fill="#29A8EB"/>
  <path d="M147.343 41.2583H144.396V44.2053H147.343V41.2583Z" fill="#29A8EB"/>
  <path d="M147.343 44.2051H144.396V47.1521H147.343V44.2051Z" fill="#29A8EB"/>
  <path d="M144.396 50.0991H141.449V53.0461H144.396V50.0991Z" fill="#29A8EB"/>
  <path d="M141.529 50.106H138.582V53.053H141.529V50.106Z" fill="#29A8EB"/>
  <path d="M144.396 47.1519H141.449V50.0989H144.396V47.1519Z" fill="#29A8EB"/>
  <path d="M11.7868 0H8.83984V2.94702H11.7868V0Z" fill="#29A8EB"/>
  <path d="M14.7361 0H11.7891V2.94702H14.7361V0Z" fill="#29A8EB"/>
  <path d="M17.6833 0H14.7363V2.94702H17.6833V0Z" fill="#29A8EB"/>
  <path d="M20.6287 0H17.6816V2.94702H20.6287V0Z" fill="#29A8EB"/>
  <path d="M23.5759 0H20.6289V2.94702H23.5759V0Z" fill="#29A8EB"/>
  <path d="M26.5232 0H23.5762V2.94702H26.5232V0Z" fill="#29A8EB"/>
  <path d="M29.4685 0H26.5215V2.94702H29.4685V0Z" fill="#29A8EB"/>
  <path d="M32.4158 0H29.4688V2.94702H32.4158V0Z" fill="#29A8EB"/>
  <path d="M35.363 0H32.416V2.94702H35.363V0Z" fill="#29A8EB"/>
  <path d="M38.3103 0H35.3633V2.94702H38.3103V0Z" fill="#29A8EB"/>
  <path d="M41.2576 0H38.3105V2.94702H41.2576V0Z" fill="#29A8EB"/>
  <path d="M44.2068 0H41.2598V2.94702H44.2068V0Z" fill="#29A8EB"/>
  <path d="M47.154 0H44.207V2.94702H47.154V0Z" fill="#29A8EB"/>
  <path d="M50.0994 0H47.1523V2.94702H50.0994V0Z" fill="#29A8EB"/>
  <path d="M53.0466 0H50.0996V2.94702H53.0466V0Z" fill="#29A8EB"/>
  <path d="M55.9939 0H53.0469V2.94702H55.9939V0Z" fill="#29A8EB"/>
  <path d="M58.9392 0H55.9922V2.94702H58.9392V0Z" fill="#29A8EB"/>
  <path d="M61.8865 0H58.9395V2.94702H61.8865V0Z" fill="#29A8EB"/>
  <path d="M64.8357 0H61.8887V2.94702H64.8357V0Z" fill="#29A8EB"/>
  <path d="M67.7829 0H64.8359V2.94702H67.7829V0Z" fill="#29A8EB"/>
  <path d="M70.7283 0H67.7812V2.94702H70.7283V0Z" fill="#29A8EB"/>
  <path d="M73.6755 0H70.7285V2.94702H73.6755V0Z" fill="#29A8EB"/>
  <path d="M76.6228 0H73.6758V2.94702H76.6228V0Z" fill="#29A8EB"/>
  <path d="M79.5681 0H76.6211V2.94702H79.5681V0Z" fill="#29A8EB"/>
  <path d="M82.5154 0H79.5684V2.94702H82.5154V0Z" fill="#29A8EB"/>
  <path d="M85.4646 0H82.5176V2.94702H85.4646V0Z" fill="#29A8EB"/>
  <path d="M88.404 0H85.457V2.94702H88.404V0Z" fill="#29A8EB"/>
  <path d="M91.3513 0H88.4043V2.94702H91.3513V0Z" fill="#29A8EB"/>
  <path d="M94.2966 0H91.3496V2.94702H94.2966V0Z" fill="#29A8EB"/>
  <path d="M97.2439 0H94.2969V2.94702H97.2439V0Z" fill="#29A8EB"/>
  <path d="M100.193 0H97.2461V2.94702H100.193V0Z" fill="#29A8EB"/>
  <path d="M103.138 0H100.191V2.94702H103.138V0Z" fill="#29A8EB"/>
  <path d="M106.086 0H103.139V2.94702H106.086V0Z" fill="#29A8EB"/>
  <path d="M109.033 0H106.086V2.94702H109.033V0Z" fill="#29A8EB"/>
  <path d="M111.98 0H109.033V2.94702H111.98V0Z" fill="#29A8EB"/>
  <path d="M114.926 0H111.979V2.94702H114.926V0Z" fill="#29A8EB"/>
  <path d="M117.873 0H114.926V2.94702H117.873V0Z" fill="#29A8EB"/>
  <path d="M120.82 0H117.873V2.94702H120.82V0Z" fill="#29A8EB"/>
  <path d="M123.767 0H120.82V2.94702H123.767V0Z" fill="#29A8EB"/>
  <path d="M126.715 0H123.768V2.94702H126.715V0Z" fill="#29A8EB"/>
  <path d="M129.664 0H126.717V2.94702H129.664V0Z" fill="#29A8EB"/>
  <path d="M132.609 0H129.662V2.94702H132.609V0Z" fill="#29A8EB"/>
  <path d="M135.556 0H132.609V2.94702H135.556V0Z" fill="#29A8EB"/>
  <path d="M138.504 0H135.557V2.94702H138.504V0Z" fill="#29A8EB"/>
  <path d="M11.8884 53.0527H8.94141V55.9998H11.8884V53.0527Z" fill="#29A8EB"/>
  <path d="M26.6169 53.0527H23.6699V55.9998H26.6169V53.0527Z" fill="#29A8EB"/>
  <path d="M26.6169 53.0527H23.6699V55.9998H26.6169V53.0527Z" fill="#29A8EB"/>
  <path d="M23.8376 53.0527H20.8906V55.9998H23.8376V53.0527Z" fill="#29A8EB"/>
  <path d="M21.113 53.0527H18.166V55.9998H21.113V53.0527Z" fill="#29A8EB"/>
  <path d="M18.3884 53.0527H15.4414V55.9998H18.3884V53.0527Z" fill="#29A8EB"/>
  <path d="M15.6638 53.0527H12.7168V55.9998H15.6638V53.0527Z" fill="#29A8EB"/>
  <path d="M29.5642 53.0527H26.6172V55.9998H29.5642V53.0527Z" fill="#29A8EB"/>
  <path d="M32.5095 53.0527H29.5625V55.9998H32.5095V53.0527Z" fill="#29A8EB"/>
  <path d="M35.4568 53.0527H32.5098V55.9998H35.4568V53.0527Z" fill="#29A8EB"/>
  <path d="M38.404 53.0527H35.457V55.9998H38.404V53.0527Z" fill="#29A8EB"/>
  <path d="M41.3513 53.0527H38.4043V55.9998H41.3513V53.0527Z" fill="#29A8EB"/>
  <path d="M44.2986 53.0527H41.3516V55.9998H44.2986V53.0527Z" fill="#29A8EB"/>
  <path d="M47.2458 53.0527H44.2988V55.9998H47.2458V53.0527Z" fill="#29A8EB"/>
  <path d="M50.1931 53.0527H47.2461V55.9998H50.1931V53.0527Z" fill="#29A8EB"/>
  <path d="M53.1384 53.0527H50.1914V55.9998H53.1384V53.0527Z" fill="#29A8EB"/>
  <path d="M56.0857 53.0527H53.1387V55.9998H56.0857V53.0527Z" fill="#29A8EB"/>
  <path d="M59.0329 53.0527H56.0859V55.9998H59.0329V53.0527Z" fill="#29A8EB"/>
  <path d="M61.9802 53.0527H59.0332V55.9998H61.9802V53.0527Z" fill="#29A8EB"/>
  <path d="M64.9275 53.0527H61.9805V55.9998H64.9275V53.0527Z" fill="#29A8EB"/>
  <path d="M67.8767 53.0527H64.9297V55.9998H67.8767V53.0527Z" fill="#29A8EB"/>
  <path d="M70.822 53.0527H67.875V55.9998H70.822V53.0527Z" fill="#29A8EB"/>
  <path d="M73.7693 53.0527H70.8223V55.9998H73.7693V53.0527Z" fill="#29A8EB"/>
  <path d="M76.7165 53.0527H73.7695V55.9998H76.7165V53.0527Z" fill="#29A8EB"/>
  <path d="M79.6638 53.0527H76.7168V55.9998H79.6638V53.0527Z" fill="#29A8EB"/>
  <path d="M82.6091 53.0527H79.6621V55.9998H82.6091V53.0527Z" fill="#29A8EB"/>
  <path d="M85.5564 53.0527H82.6094V55.9998H85.5564V53.0527Z" fill="#29A8EB"/>
  <path d="M88.5056 53.0527H85.5586V55.9998H88.5056V53.0527Z" fill="#29A8EB"/>
  <path d="M91.4509 53.0527H88.5039V55.9998H91.4509V53.0527Z" fill="#29A8EB"/>
  <path d="M94.3982 53.0527H91.4512V55.9998H94.3982V53.0527Z" fill="#29A8EB"/>
  <path d="M97.3454 53.0527H94.3984V55.9998H97.3454V53.0527Z" fill="#29A8EB"/>
  <path d="M100.293 53.0527H97.3457V55.9998H100.293V53.0527Z" fill="#29A8EB"/>
  <path d="M103.238 53.0527H100.291V55.9998H103.238V53.0527Z" fill="#29A8EB"/>
  <path d="M106.185 53.0527H103.238V55.9998H106.185V53.0527Z" fill="#29A8EB"/>
  <path d="M109.133 53.0527H106.186V55.9998H109.133V53.0527Z" fill="#29A8EB"/>
  <path d="M112.08 53.0527H109.133V55.9998H112.08V53.0527Z" fill="#29A8EB"/>
  <path d="M115.027 53.0527H112.08V55.9998H115.027V53.0527Z" fill="#29A8EB"/>
  <path d="M117.974 53.0527H115.027V55.9998H117.974V53.0527Z" fill="#29A8EB"/>
  <path d="M120.92 53.0527H117.973V55.9998H120.92V53.0527Z" fill="#29A8EB"/>
  <path d="M123.867 53.0527H120.92V55.9998H123.867V53.0527Z" fill="#29A8EB"/>
  <path d="M126.814 53.0527H123.867V55.9998H126.814V53.0527Z" fill="#29A8EB"/>
  <path d="M129.761 53.0527H126.814V55.9998H129.761V53.0527Z" fill="#29A8EB"/>
  <path d="M132.703 53.0527H129.756V55.9998H132.703V53.0527Z" fill="#29A8EB"/>
  <path d="M135.648 53.0527H132.701V55.9998H135.648V53.0527Z" fill="#29A8EB"/>
  <path d="M138.504 53.0527H135.557V55.9998H138.504V53.0527Z" fill="#29A8EB"/>
  <path d="M144.396 47.1519H141.449V50.0989H144.396V47.1519Z" fill="#29A8EB"/>
  <path d="M13.3435 18.9306H16.4133V23.5354H17.9483V25.0703H19.4832V26.6052H22.553V25.0703H24.0879V23.5354H25.6228V18.9306H28.6927V25.0703H27.1578V26.6052H25.6228V28.1401H24.0879V29.675H22.553V37.3496H19.4832V29.675H17.9483V28.1401H16.4133V26.6052H14.8784V25.0703H13.3435V18.9306ZM30.5226 20.4655H32.0575V18.9306H44.3368V20.4655H45.8717V35.8147H44.3368V37.3496H32.0575V35.8147H30.5226V20.4655ZM33.5924 34.2798H42.8019V22.0005H33.5924V34.2798ZM47.7016 18.9306H50.7715V34.2798H59.981V18.9306H63.0508V35.8147H61.5159V37.3496H49.2366V35.8147H47.7016V18.9306ZM64.8807 18.9306H80.2299V22.0005H74.0902V37.3496H71.0204V22.0005H64.8807V18.9306ZM82.0598 18.9306H85.1296V34.2798H94.3391V18.9306H97.4089V35.8147H95.874V37.3496H83.5947V35.8147H82.0598V18.9306ZM99.2388 18.9306H113.053V20.4655H114.588V35.8147H113.053V37.3496H99.2388V18.9306ZM111.518 22.0005H102.309V26.6052H111.518V22.0005ZM102.309 34.2798H111.518V29.675H102.309V34.2798ZM116.418 18.9306H131.767V22.0005H119.488V26.6052H130.232V29.675H119.488V34.2798H131.767V37.3496H116.418V18.9306Z" fill="#29A8EB"/>
</svg>
